<svg id="Layer_1" data-name="Layer 1" xmlns="http://www.w3.org/2000/svg" viewBox="0 0 435.77 499.62"><defs><style>.cls-1{fill:#47b3ff;}.cls-2{fill:#32aaff;}.cls-3{fill:#34f5da;}.cls-4{fill:#34ebdf;}.cls-5{fill:#2d97e3;}.cls-6{fill:#30ccd6;}.cls-7{fill:#30dacf;}.cls-8{fill:#2f89fc;}</style></defs><path class="cls-1" d="M368.42,351.42l41.73-72.28a10.12,10.12,0,0,0,0-10.15l-44.66-77.36H276.16a10.14,10.14,0,0,0-8.79,5.08l-44.66,77.35,44.66,77.36a10.16,10.16,0,0,0,8.79,5.08h83.47A10.15,10.15,0,0,0,368.42,351.42Z"/><path class="cls-1" d="M86.17,357.14h62.08a29.3,29.3,0,0,0,25.39-14.65l35.9-62.19a12.48,12.48,0,0,0,0-12.48l-35.9-62.18A29.31,29.31,0,0,0,148.25,191H86.17a29.33,29.33,0,0,0-25.39,14.66l-31,53.76a29.36,29.36,0,0,0,0,29.32l31,53.77A29.32,29.32,0,0,0,86.17,357.14Z"/><path class="cls-2" d="M140.53,68.26l-19.35,33.51L170.36,187h98.36l49.18-85.18L296.81,65.25a19.33,19.33,0,0,0-16.74-9.67H162.49A25.35,25.35,0,0,0,140.53,68.26Z"/><polygon class="cls-3" points="316.77 98.72 359.7 24.36 291.9 55.64 316.77 98.72"/><polygon class="cls-3" points="122.15 98.59 146.34 56.7 80.5 26.44 122.15 98.59"/><polygon class="cls-4" points="166.57 188.3 140.59 143.87 114.61 188.3 166.57 188.3"/><polygon class="cls-4" points="272.52 188.68 321.29 188.68 296.91 146.44 272.52 188.68"/><polygon class="cls-5" points="237.78 231.64 197.07 231.64 217.43 265.29 237.78 231.64"/><path class="cls-6" d="M362.26,33.5,319.55,102h0l-22.83,38L325,187c.26.42.45.88.68,1.32h38.16l-12.44-45.49c-.42-1.18-1.46-2.52-1.28-3.75Z"/><path class="cls-6" d="M71.2,189l40.09.72c.28-.61-1.89-2.63-1.56-3.22l29.5-50.21-22.55-35.63a8.39,8.39,0,0,1-1.38-1.78L77.57,33.5,92,136.39a8.21,8.21,0,0,1-.56,4.33Z"/><polygon class="cls-7" points="198.07 311.9 236.78 311.9 237.78 311.9 217.43 276.65 197.08 311.9 198.07 311.9"/><polygon class="cls-3" points="266.93 191.82 167.93 191.82 188.63 227.69 246.22 227.69 266.93 191.82"/><path class="cls-8" d="M411.4,257.27l-40.18-69.6-.3-.66-13.84-40.68a33.6,33.6,0,0,1-1.47-15.51L371.29,18.94a.49.49,0,0,1,0-.12,3.81,3.81,0,0,0-1.36-3.56,1.88,1.88,0,0,0-.23-.16c-.09-.06-.17-.14-.26-.19l-.05,0a4,4,0,0,0-.56-.26l-.11,0h0c-.12,0-.23-.05-.35-.08s-.24-.06-.37-.07h0a3.69,3.69,0,0,0-2,.33h0L289.78,49.89a3.86,3.86,0,0,1-1.57.34H151.79a3.7,3.7,0,0,1-1.57-.34L73.76,14.75v0a3.77,3.77,0,0,0-2.26-.29l-.27,0a1.74,1.74,0,0,0-.22.05,1.6,1.6,0,0,0-.3.13l-.14,0-.08.05a3.45,3.45,0,0,0-.41.25,3.77,3.77,0,0,0-1.66,3.73v.16L83.91,129.45a33.67,33.67,0,0,1-2.29,17.69L64.92,187l-.22.42L24.37,257.27a33.69,33.69,0,0,0,0,33.67L60.2,353a20.21,20.21,0,0,0,17.5,10.1h79.43a20.21,20.21,0,0,0,17.5-10.1l20.78-36a3.75,3.75,0,0,1,3.25-1.87h38.45a3.75,3.75,0,0,1,3.25,1.87l16.9,29.27a33.68,33.68,0,0,0,29.16,16.83H350.3a33.69,33.69,0,0,0,29.16-16.83l31.94-55.33A33.64,33.64,0,0,0,411.4,257.27ZM278.88,179.39l16.16-28a2.69,2.69,0,0,1,4.66,0l16.15,28a3.76,3.76,0,0,1-.86,4.8,2.56,2.56,0,0,1-1.67.57h-31.9a2.56,2.56,0,0,1-1.67-.57A3.77,3.77,0,0,1,278.88,179.39Zm81-133.73-12,85.89a33.65,33.65,0,0,0,1.47,15.52l11.22,33a3.31,3.31,0,0,1,.15.58,3.67,3.67,0,0,1-3.73,4.11H328.56a3.51,3.51,0,0,1-1.84-1.7c-.16-.34-.33-.66-.51-1l-23.35-40.45a3.77,3.77,0,0,1,0-3.76l18.8-32.57h0l35.06-60.72A1.69,1.69,0,0,1,359.85,45.66ZM299,54l54.42-25.1a1.68,1.68,0,0,1,2.16,2.37l-34,58.83a3.75,3.75,0,0,1-6.5,0L297.32,59.32A3.76,3.76,0,0,1,299,54ZM151.25,59.74a3.74,3.74,0,0,1,3.25-1.88h131a3.74,3.74,0,0,1,3.25,1.88l24.13,41.77a3.77,3.77,0,0,1,0,3.76l-44.81,77.61a3.79,3.79,0,0,1-3.26,1.88H175.19a3.76,3.76,0,0,1-3.25-1.88l-44.81-77.61a3.77,3.77,0,0,1,0-3.76Zm42.24,167.9-.13,0-18-31.23a2.69,2.69,0,0,1,2.33-4h80.45a2.7,2.7,0,0,1,2.34,4l-18.09,31.33c0-.07,0-.12-.07-.12Zm39.84,10.76L219,262a1.35,1.35,0,0,1-2.3,0L202.45,238.4a1.34,1.34,0,0,1,1.15-2h28.58A1.35,1.35,0,0,1,233.33,238.4Zm-73.57-53.29H121.7a2.69,2.69,0,0,1-2.33-4l19-33a2.69,2.69,0,0,1,4.66,0l19,33A2.69,2.69,0,0,1,159.76,185.11ZM85.31,28.45,141,54a3.75,3.75,0,0,1,1.68,5.29L123.83,92a2.69,2.69,0,0,1-4.66,0L83.58,30.34A1.34,1.34,0,0,1,85.31,28.45ZM76.15,179.91s16.68-39.9,16.73-40.2a3.82,3.82,0,0,0,0-1.12L79.63,43.94a1.35,1.35,0,0,1,2.5-.86l35.92,62.22a3.61,3.61,0,0,0,.87,1l16.28,28.2a3.9,3.9,0,0,1,0,3.91L110,182.08c-.18.32-.35.65-.51,1a3.7,3.7,0,0,1-3.39,2.05H79.62A3.75,3.75,0,0,1,76.15,179.91Zm94.07,165.46a20.18,20.18,0,0,1-17.49,10.1H82.1A20.19,20.19,0,0,1,64.62,345.4L29.27,284.18a20.23,20.23,0,0,1,0-20.14l35-61A20.58,20.58,0,0,1,82.1,192.74h64.8a30.29,30.29,0,0,1,26.24,15.15l28.51,49.38a33.69,33.69,0,0,1,0,33.67Zm62.33-37.87H203.23a1.35,1.35,0,0,1-1.17-2l14.66-25.39a1.34,1.34,0,0,1,2.33,0l14.66,25.39A1.35,1.35,0,0,1,232.55,307.5ZM402.6,290.94l-27.54,47.7a33.68,33.68,0,0,1-29.16,16.84H290.82a33.68,33.68,0,0,1-29.16-16.84l-27.54-47.7a33.69,33.69,0,0,1,0-33.67l27.54-47.7a33.69,33.69,0,0,1,29.16-16.83H345.9a33.69,33.69,0,0,1,29.16,16.83l27.54,47.7A33.69,33.69,0,0,1,402.6,290.94Z"/><path class="cls-8" d="M126.53,320.89H92.89A3.76,3.76,0,0,1,89.64,319L78.25,299.27a3.75,3.75,0,0,0-5.14-1.36L73,298a3.76,3.76,0,0,0-1.36,5.12l13.6,23.54a3.74,3.74,0,0,0,3.25,1.88h38a3.76,3.76,0,0,0,3.76-3.75v-.12A3.76,3.76,0,0,0,126.53,320.89Z"/><path class="cls-8" d="M331.74,320.89H298.1a3.76,3.76,0,0,1-3.25-1.88l-11.39-19.73a3.82,3.82,0,0,0-4.93-1.48l-.1.05a3.73,3.73,0,0,0-1.58,5.24l13.6,23.54a3.74,3.74,0,0,0,3.25,1.88h38a3.75,3.75,0,0,0,3.75-3.75v-.12A3.75,3.75,0,0,0,331.74,320.89Z"/><path class="cls-8" d="M58.44,466.63l21-75.28h29.69l21.79,75.28H111.61l-4.8-18.85H82.56l-4.67,18.85Zm36.18-67.52-8.56,34.5h17.25Z"/><path class="cls-8" d="M158.68,466.63H140.53V391.35h30.86q12.45,0,19.65,6.62t7.2,19.86q0,11.24-7.39,17.72T171.39,442H158.68Zm10-60.3h-10v22.6h10a15.28,15.28,0,0,0,9.34-2.88q3.88-2.87,3.89-8.49t-3.83-8.49A15.69,15.69,0,0,0,168.67,406.33Z"/><path class="cls-8" d="M246.22,450.72v15.91H209.39V450.72h9.47V407.27h-9.47V391.35h36.83v15.92h-9.33v43.45Z"/><path class="cls-8" d="M261.53,442.83V430.26h28.79v12.57Z"/><path class="cls-8" d="M350.62,485.22H345a10.93,10.93,0,0,1-5.58-1.54,11.43,11.43,0,0,1-4.41-5.21q-1.74-3.69-2.14-10.51-14.78-2-22.5-12.29t-7.71-26.48a47.9,47.9,0,0,1,4.15-20.59,30.48,30.48,0,0,1,12.51-13.7q8.37-4.89,20.82-4.88,12.18,0,20.49,4.88a31.11,31.11,0,0,1,12.51,13.64q4.22,8.76,4.22,20.65,0,15-6.94,25.21T350,467.56c0,2,.37,3.09,1.1,3.35a20.24,20.24,0,0,0,5.26.4h6.48l-.26,13.91H350.62ZM339.86,450q9.58,0,14.26-5.86t4.67-15.62q0-9.76-4.67-15.72t-14.26-5.95q-9.21,0-14,5.69t-4.8,16q0,9.75,4.67,15.62T339.86,450Z"/></svg>